<?xml version="1.0" encoding="UTF-8"?>
<svg width="161px" height="38px" viewBox="0 0 161 38" version="1.1" xmlns="http://www.w3.org/2000/svg" xmlns:xlink="http://www.w3.org/1999/xlink">
    <title>logo_blc</title>
    <defs>
        <polygon id="path-1" points="0 0 160.042 0 160.042 37.01 0 37.01"></polygon>
    </defs>
    <g id="Page-1" stroke="none" stroke-width="1" fill="none" fill-rule="evenodd">
        <g id="Header" transform="translate(-30.000000, -17.000000)">
            <g id="logo_blc" transform="translate(30.000000, 17.000000)">
                <mask id="mask-2" fill="white">
                    <use xlink:href="#path-1"></use>
                </mask>
                <g id="a"></g>
                <path d="M147.489,-3.26849658e-12 C138.987,-3.26849658e-12 132.201,3.536 130.92,11.01 C128.636,24.45 147.598,20.27 146.697,25.602 C146.398,27.257 144.905,28.762 142.109,28.762 C141.039,28.762 139.909,28.472 139.099,27.878 C138.264,27.304 137.41,26.396 137.535,22.658 L132.885,22.658 C132.801,26.064 133.185,28.229 134.144,29.512 C136.174,32.522 140.227,32.674 141.038,32.674 C147.551,32.674 151.911,29.847 152.718,25.09 C153.34,21.531 150.114,20.382 146.421,19.41 C145.718,19.234 145.118,19.033 144.305,18.837 C141.083,18.018 135.083,16.492 135.449,11.099 C135.896,4.134 143.989,3.604 146.465,3.604 C150.075,3.604 152.615,4.774 154.068,7.076 C155.18,8.888 155.26,10.942 155.306,11.851 L155.306,11.916 L160.042,11.938 C160.002,4.841 156.902,-3.26849658e-12 147.489,-3.26849658e-12 Z M153.233,7.626 C151.972,5.635 149.71,4.62 146.465,4.62 C144.199,4.62 136.811,5.085 136.411,11.163 C136.107,15.698 141.191,16.999 144.541,17.863 C145.352,18.061 145.973,18.24 146.697,18.437 C149.627,19.192 154.517,20.472 153.703,25.267 C152.805,30.553 148.067,33.695 141.038,33.695 C140.144,33.695 135.659,33.517 133.354,30.111 C132.243,28.651 131.814,26.331 131.902,22.658 L127.506,22.658 C126.521,31.481 130.706,36.941 140.678,37.008 C150.028,37.097 157.138,33.402 158.357,25.248 C160.344,11.962 140.657,15.894 141.425,10.191 C141.593,8.907 142.767,7.959 145.226,7.959 C146.314,7.959 147.274,8.157 148,8.601 C148.724,9.043 149.22,9.771 149.476,11.938 L154.32,11.916 L154.32,11.871 C154.3,11.075 154.215,9.196 153.233,7.626 L153.233,7.626 Z M37.762,0.953 L29.882,35.883 L55.247,35.883 L56.102,31.923 L35.775,31.923 L41.988,5.018 L62.166,5.018 L63.126,0.953 L37.763,0.953 L37.762,0.953 Z M37.012,30.907 L56.34,30.907 L57.128,27.367 L42.138,27.367 L43.248,22.75 L57.406,22.75 L58.198,18.922 L44.189,18.922 L44.466,17.908 L58.408,17.908 L59.222,14.082 L45.213,14.082 L46.323,9.684 L61.1,9.684 L61.933,6.037 L42.756,6.037 L37.012,30.907 L37.012,30.907 Z M86.336,1.017 L81.616,1.017 L61.652,35.882 L66.202,35.882 L69.555,30.175 L81.747,30.175 L82.795,35.882 L87.041,35.882 L85.313,26.001 L71.883,26.001 L72.438,24.979 L85.143,24.979 L82.111,7.913 L82.899,6.455 L88.046,35.882 L92.403,35.882 L86.336,1.017 Z M74.7,20.937 L79.08,13.22 L80.383,20.937 L74.7,20.937 Z M76.047,1.017 L55.953,35.882 L60.503,35.882 L80.465,1.017 L76.046,1.017 L76.047,1.017 Z M13.333,37.008 C22.663,37.097 29.775,33.402 30.992,25.248 C32.979,11.962 13.314,15.894 14.06,10.191 C14.23,8.907 15.427,7.959 17.881,7.959 C18.948,7.959 19.91,8.157 20.635,8.601 C21.364,9.043 21.854,9.771 22.111,11.938 L26.978,11.916 L26.978,11.871 C26.934,11.075 26.85,9.196 25.866,7.626 C24.632,5.635 22.346,4.62 19.118,4.62 C16.859,4.62 9.47,5.085 9.063,11.163 C8.766,15.698 13.823,16.999 17.2,17.863 C18.01,18.061 18.63,18.24 19.336,18.437 C22.26,19.192 27.15,20.472 26.337,25.267 C25.441,30.553 20.699,33.695 13.676,33.695 C12.801,33.695 8.296,33.517 5.99,30.111 C4.88,28.651 4.432,26.331 4.558,22.658 L0.138,22.658 C0.0484426184,23.4525572 0.00237392848,24.251415 -1.11780025e-05,25.051 C-0.008,32.459 4.278,36.946 13.333,37.008 L13.333,37.008 Z M13.676,32.674 C20.187,32.674 24.566,29.847 25.378,25.09 C25.977,21.531 22.751,20.382 19.058,19.41 C18.375,19.234 17.755,19.033 16.965,18.837 C13.74,18.018 7.718,16.492 8.083,11.099 C8.532,4.134 16.643,3.604 19.118,3.604 C22.709,3.604 25.247,4.774 26.702,7.076 C27.833,8.888 27.918,10.942 27.96,11.851 L27.96,11.916 L32.677,11.938 C32.659,4.841 29.563,-3.26849658e-12 20.126,-3.26849658e-12 C11.628,-3.26849658e-12 4.836,3.536 3.556,11.01 C1.272,24.45 20.252,20.27 19.336,25.602 C19.058,27.257 17.541,28.762 14.766,28.762 C13.676,28.762 12.543,28.472 11.754,27.878 C10.903,27.304 10.046,26.396 10.173,22.658 L5.543,22.658 C5.435,26.108 5.796,28.208 6.78,29.512 C8.81,32.522 12.885,32.674 13.676,32.674 L13.676,32.674 Z M129.597,10.503 C129.597,3.933 125.327,0.973 117.957,0.973 L100.622,0.973 L92.892,35.883 L97.587,35.883 L104.403,4.753 L118.021,4.753 C120.263,4.753 122.102,5.483 123.359,6.808 C124.492,8.004 125.133,9.684 125.133,11.54 C125.133,13.859 124.196,16.205 122.573,17.97 C121.346836,19.3025063 119.758656,20.248464 118.003,20.692 C118.577,21.024 119.113,21.444 119.537,21.951 C120.287,22.86 121.1,24.451 120.735,26.839 L120.758,26.793 C120.758,26.793 120.758,26.818 120.735,26.839 L120.735,26.861 L120.735,26.839 C120.735,26.902 120.711,27.036 120.651,27.413 C120.243,30.175 119.881,33.34 120.866,35.883 L125.286,35.883 C125.006,35.128 124.492,34.09 125.154,31.481 C125.881,28.582 126.928,22.903 123.192,20.937 C124.174,20.449 129.597,18.15 129.597,10.503 Z M119.69,27.257 L119.772,26.707 C120.074,24.671 119.412,23.367 118.794,22.617 C118.004,21.665 116.785,21.047 115.633,21.024 L106.558,21.024 L106.835,20.008 L115.633,20.008 C118.75,19.92 120.735,18.482 121.867,17.267 C123.319,15.673 124.151,13.595 124.151,11.54 C124.151,9.946 123.618,8.511 122.658,7.516 C121.59,6.388 119.986,5.771 118.021,5.771 L105.188,5.771 L98.595,35.882 L103.165,35.882 L105.619,24.979 L111.553,24.979 C112.407,24.979 115.461,24.559 114.567,28.229 C114.351,29.492 113.775,32.741 114.567,35.882 L119.86,35.882 C118.941,33.181 119.26,30.043 119.69,27.257 L119.69,27.257 Z M109.076,9.66 L115.014,9.66 C117.834,9.66 118.686,11.163 118.686,12.427 C118.686,14.323 117.001,15.985 113.366,15.985 L107.73,15.985 L109.076,9.66 Z" id="Shape" fill="#FFFFFF" fill-rule="nonzero" mask="url(#mask-2)"></path>
            </g>
        </g>
    </g>
</svg>